<?xml version="1.0" standalone="no"?>
<!DOCTYPE svg PUBLIC "-//W3C//DTD SVG 20010904//EN"
 "http://www.w3.org/TR/2001/REC-SVG-20010904/DTD/svg10.dtd">
<svg version="1.0" xmlns="http://www.w3.org/2000/svg"
 width="1484.000000pt" height="1484.000000pt" viewBox="0 0 1484.000000 1484.000000"
 preserveAspectRatio="xMidYMid meet">
<metadata>
Created by potrace 1.14, written by Peter Selinger 2001-2017
</metadata>
<g transform="translate(0.000000,1484.000000) scale(0.100000,-0.100000)"
fill="#000000" stroke="none">
<path d="M210 14125 l0 -715 23 0 c35 0 112 54 148 102 72 100 126 245 149
406 7 45 14 82 15 82 2 0 37 -25 77 -55 261 -197 539 -233 613 -78 26 53 30
146 11 224 -21 86 -93 228 -160 320 -30 41 -52 77 -50 80 2 3 32 9 66 12 264
25 516 179 518 315 l0 22 -705 0 -705 0 0 -715z"/>
<path d="M1720 14766 c0 -70 -2 -76 -36 -117 -81 -97 -122 -227 -131 -414 -6
-117 -7 -122 -45 -187 -121 -209 -329 -420 -538 -545 l-62 -36 -161 -2 c-138
-1 -172 -5 -232 -24 -82 -27 -142 -59 -206 -112 -25 -21 -57 -41 -72 -44 l-27
-7 0 -1009 0 -1008 48 -27 c26 -15 48 -28 49 -29 1 0 18 -55 37 -120 85 -297
214 -517 338 -579 59 -30 134 -36 124 -11 -10 27 -75 358 -82 419 l-7 59 29
-6 c79 -17 241 -19 321 -4 268 51 396 223 397 532 1 154 -24 245 -84 305 -84
84 -219 74 -329 -26 -60 -53 -81 -100 -81 -176 0 -116 69 -204 153 -196 39 4
39 4 17 -14 -105 -85 -290 -14 -446 170 -246 289 -392 732 -340 1032 29 164
97 281 223 381 229 182 477 195 636 34 92 -95 132 -212 125 -374 -3 -79 -8
-104 -28 -139 -41 -72 -119 -94 -175 -50 -39 30 -53 72 -66 190 -14 132 -35
184 -81 196 -106 28 -181 -57 -215 -243 -16 -88 -11 -184 13 -264 35 -118 228
-221 394 -209 225 16 365 220 377 553 4 110 2 144 -16 219 -23 97 -83 221
-136 284 -19 22 -35 42 -35 45 0 2 33 31 73 65 83 69 227 213 288 289 l42 52
55 -49 c62 -55 179 -120 261 -144 260 -76 602 -6 724 149 68 86 90 201 63 318
-33 139 -107 240 -199 271 -148 49 -376 19 -460 -62 -38 -36 -52 -91 -33 -135
17 -43 61 -60 199 -82 114 -18 150 -34 178 -78 24 -38 20 -98 -8 -129 -74 -82
-276 -88 -428 -13 -219 107 -291 330 -181 562 118 247 326 382 592 383 404 1
949 -308 1085 -615 29 -64 29 -147 1 -202 -30 -58 -38 -59 -34 -2 4 47 2 52
-40 93 -68 69 -167 82 -258 36 -104 -54 -177 -198 -150 -299 31 -117 163 -180
376 -181 258 0 417 98 493 304 31 84 47 241 35 344 l-10 83 46 -7 c25 -3 132
-28 239 -55 141 -35 197 -46 202 -37 10 17 -1 77 -23 121 -66 131 -287 269
-594 371 l-81 27 -41 82 c-22 45 -57 101 -77 125 l-37 42 -974 0 -974 0 0 -74z"/>
<path d="M4039 14811 c52 -73 162 -135 213 -120 80 23 205 -31 318 -138 226
-212 275 -437 150 -690 -59 -119 -160 -223 -216 -223 -10 0 -56 41 -103 90
-82 85 -89 90 -128 90 -32 0 -46 -6 -61 -25 -63 -79 -18 -242 87 -312 118 -80
337 -36 466 92 108 109 172 246 229 499 l7 29 70 -5 70 -5 30 44 c94 137 159
363 183 641 l6 62 -671 0 -670 0 20 -29z"/>
<path d="M5506 14809 c-3 -17 -6 -61 -6 -98 0 -36 -7 -113 -15 -170 -58 -406
-224 -735 -512 -1012 -271 -262 -654 -463 -1110 -585 l-143 -38 0 -863 0 -863
-833 0 -834 0 -37 -137 c-172 -631 -484 -1093 -927 -1371 -220 -139 -530 -240
-791 -259 l-88 -6 0 -103 c0 -120 -15 -110 138 -93 418 45 782 202 1103 474
314 267 582 707 735 1208 l26 87 854 0 854 0 0 883 0 883 98 29 c168 49 331
114 497 195 705 345 1117 924 1184 1660 6 63 11 136 11 163 l0 47 -99 0 -98 0
-7 -31z"/>
<path d="M6440 14788 c0 -150 -35 -397 -82 -578 -41 -159 -87 -280 -173 -455
-228 -466 -594 -840 -1055 -1075 -209 -106 -360 -159 -655 -230 -94 -22 -187
-45 -207 -51 l-38 -10 0 -859 0 -860 -845 0 -845 0 -10 -22 c-5 -13 -34 -122
-64 -243 -80 -320 -134 -466 -255 -690 -361 -668 -1032 -1129 -1791 -1231 -58
-7 -129 -14 -157 -14 l-53 0 0 -485 0 -485 63 0 c34 0 123 7 197 15 666 73
1276 334 1790 766 142 119 358 339 469 479 183 229 358 522 472 790 l64 150
473 0 472 0 0 -687 0 -688 54 -28 c220 -115 384 -376 456 -727 17 -80 21 -124
16 -185 -11 -165 -84 -393 -175 -550 -62 -107 -192 -239 -283 -285 l-68 -35 0
-687 0 -688 -473 0 -474 0 -53 127 c-498 1186 -1623 1992 -2888 2069 l-112 7
0 -486 0 -487 43 0 c111 0 351 -42 525 -92 478 -137 938 -454 1238 -853 230
-307 347 -570 464 -1042 l52 -213 849 0 849 0 2 -862 3 -862 250 -62 c281 -69
409 -112 573 -189 735 -349 1244 -1043 1357 -1849 8 -56 17 -156 21 -223 l7
-123 894 0 c844 0 893 1 893 18 0 69 24 307 40 402 132 776 625 1428 1335
1769 127 61 273 114 498 182 l177 53 0 873 0 873 931 2 930 3 64 250 c72 286
121 428 209 605 123 249 269 451 465 645 135 134 214 199 366 300 273 182 594
310 916 364 130 22 412 44 448 34 l21 -5 0 486 0 486 -138 0 c-360 0 -781 -83
-1147 -227 -431 -169 -813 -421 -1145 -753 -328 -327 -589 -719 -753 -1130
l-34 -85 -576 -3 -577 -2 0 689 0 689 -52 27 c-215 113 -371 357 -448 701 -28
125 -28 223 0 348 74 331 234 586 438 694 l62 33 0 690 0 689 576 -2 575 -3
48 -115 c243 -586 660 -1106 1182 -1475 329 -233 699 -403 1094 -505 240 -61
457 -92 758 -106 l137 -6 0 484 0 485 -135 7 c-162 8 -267 20 -400 47 -772
156 -1423 685 -1733 1409 -63 146 -100 262 -157 492 -25 100 -50 200 -56 221
l-10 37 -929 0 -930 0 0 873 0 872 -67 19 c-196 55 -492 160 -603 213 -693
331 -1180 957 -1329 1708 -21 108 -36 232 -46 388 l-7 97 -894 0 -894 0 0 -52z
m1006 -1033 c235 -709 711 -1330 1340 -1748 139 -92 342 -206 461 -258 l73
-33 0 -528 0 -528 -593 0 -592 0 -25 -52 c-110 -232 -410 -412 -786 -473 -94
-16 -171 -8 -323 31 -291 76 -527 235 -624 422 l-38 72 -575 0 -574 0 2 496 3
495 115 48 c1008 419 1756 1300 2001 2358 l24 101 32 -131 c18 -73 54 -195 79
-272z m-1076 -4064 c0 -18 77 -103 130 -143 75 -56 218 -122 320 -147 219 -53
588 -56 813 -6 195 44 387 157 457 271 l22 34 599 0 599 0 0 -704 c0 -686 -1
-705 -19 -711 -32 -10 -147 -139 -186 -209 -48 -87 -89 -208 -110 -331 -25
-141 -25 -509 0 -649 41 -239 133 -417 268 -522 l47 -37 0 -698 0 -699 -598 0
-597 0 -35 47 c-70 94 -207 183 -360 233 -104 33 -223 50 -400 57 -399 14
-681 -59 -858 -222 -37 -34 -74 -74 -81 -89 l-14 -26 -599 0 -598 0 0 703 0
704 26 14 c42 22 130 124 171 196 92 166 123 304 130 594 8 308 -14 466 -88
644 -40 97 -119 208 -186 260 l-52 40 0 703 -1 702 600 0 c340 0 600 -4 600
-9z m1008 -4997 c174 -31 372 -111 497 -199 86 -61 185 -170 225 -248 l35 -67
593 0 592 0 0 -527 0 -528 -138 -67 c-653 -318 -1181 -829 -1525 -1478 -116
-219 -220 -492 -286 -753 l-37 -148 -13 63 c-47 228 -163 552 -281 788 -173
343 -364 607 -639 880 -318 317 -664 549 -1071 721 l-135 56 -3 497 -2 496
575 0 575 0 24 48 c115 227 383 398 731 466 132 25 139 25 283 0z"/>
<path d="M7230 13111 c0 -5 -51 -120 -114 -255 l-114 -245 25 -68 c14 -37 45
-124 70 -193 l44 -124 -65 62 c-54 52 -70 62 -100 62 -30 0 -37 -4 -42 -26
-13 -52 60 -225 182 -430 l54 -91 0 -217 0 -217 -29 15 c-121 63 -184 192
-201 408 -10 129 -27 181 -79 241 -42 47 -89 76 -154 93 -104 28 -222 11 -274
-38 -48 -45 -27 -106 104 -307 118 -181 148 -254 124 -300 -11 -20 -14 -20
-40 -6 -16 8 -69 49 -117 91 -178 153 -285 209 -405 208 -171 -1 -341 -164
-389 -372 -16 -68 -15 -195 0 -253 19 -70 45 -99 89 -99 46 0 72 26 164 167
118 179 184 192 342 69 33 -26 161 -140 284 -254 263 -244 422 -374 517 -422
58 -30 79 -35 134 -35 56 1 75 6 137 39 39 20 118 75 175 121 101 82 162 137
429 384 342 316 388 321 556 63 95 -146 140 -169 197 -101 68 80 57 318 -21
461 -88 162 -253 256 -397 228 -107 -21 -178 -63 -351 -211 -49 -42 -99 -81
-111 -87 -51 -27 -59 51 -15 143 16 33 69 122 119 198 130 200 139 252 50 299
-36 19 -58 23 -138 23 -82 0 -103 -4 -152 -27 -72 -33 -132 -95 -156 -161 -12
-30 -23 -94 -27 -152 -7 -115 -25 -197 -56 -256 -25 -50 -95 -127 -138 -152
l-31 -18 0 222 0 221 49 82 c27 44 78 139 112 210 55 111 64 137 64 185 0 54
-1 56 -28 59 -36 4 -86 -27 -137 -86 l-40 -47 24 65 c13 36 45 125 71 198 l48
133 -112 242 c-61 133 -111 248 -111 255 0 6 -4 12 -10 12 -5 0 -10 -4 -10 -9z"/>
<path d="M7250 9235 c0 -8 -39 -98 -86 -200 l-87 -185 48 -133 c27 -72 50
-139 53 -147 3 -8 -18 6 -46 33 -86 79 -132 56 -96 -48 19 -58 59 -140 120
-246 l44 -76 0 -166 c0 -122 -3 -167 -12 -167 -6 0 -33 22 -59 49 -61 63 -87
133 -98 265 -15 170 -67 236 -210 267 -62 13 -148 -2 -180 -32 -43 -40 -25
-94 81 -253 89 -131 112 -189 89 -225 -12 -18 -29 -7 -127 77 -135 115 -208
152 -302 152 -186 0 -342 -223 -312 -443 13 -88 51 -134 97 -116 23 8 51 41
115 138 100 150 151 143 364 -51 240 -219 329 -302 329 -309 0 -5 -39 -43 -86
-86 -48 -43 -142 -129 -210 -192 -135 -124 -208 -177 -254 -186 -45 -9 -91 27
-152 119 -73 109 -91 128 -127 124 -40 -4 -66 -42 -75 -114 -24 -172 61 -349
201 -420 107 -54 231 -25 363 86 135 113 166 134 176 119 23 -36 -3 -101 -101
-249 -72 -108 -90 -147 -90 -190 0 -88 209 -105 313 -26 63 48 87 99 98 212
11 116 23 166 55 221 22 39 89 103 106 103 5 0 8 -76 8 -169 l0 -169 -45 -76
c-94 -159 -141 -272 -130 -313 9 -39 54 -30 109 21 26 24 45 38 43 32 -2 -6
-25 -71 -52 -144 l-47 -133 86 -187 c48 -103 86 -193 86 -199 0 -7 5 -13 10
-13 6 0 10 5 10 11 0 6 38 93 85 194 47 101 85 189 85 196 0 9 -54 164 -96
274 -5 12 12 2 45 -28 40 -37 58 -48 79 -45 25 3 27 7 26 45 -1 44 -51 158
-130 295 l-44 77 0 166 c0 103 4 165 10 165 20 0 92 -75 115 -119 27 -55 45
-134 45 -200 0 -109 48 -194 133 -238 42 -22 66 -27 127 -27 98 -1 143 22 148
76 4 44 -13 78 -106 222 -76 116 -103 186 -82 211 16 19 24 14 140 -84 104
-88 170 -126 243 -140 181 -33 357 146 361 369 2 130 -24 190 -83 190 -32 0
-53 -21 -106 -105 -67 -109 -122 -152 -176 -140 -43 10 -127 75 -290 226 -79
74 -171 158 -203 186 l-59 52 49 43 c26 24 113 103 192 176 327 303 355 309
487 107 60 -93 75 -107 112 -107 58 0 93 105 75 229 -27 194 -159 333 -318
333 -82 0 -169 -44 -288 -145 -108 -91 -125 -102 -137 -84 -21 32 8 99 114
264 55 85 71 119 75 156 4 41 1 49 -19 63 -74 47 -201 40 -286 -17 -68 -46
-92 -100 -104 -228 -12 -143 -31 -191 -104 -264 l-60 -60 -3 172 -2 172 60
105 c71 124 122 247 118 284 -2 21 -9 28 -30 30 -21 3 -39 -8 -78 -44 l-51
-47 42 114 c71 195 74 158 -25 370 -47 102 -86 191 -86 197 0 7 -4 12 -10 12
-5 0 -10 -7 -10 -15z"/>
<path d="M7145 4245 c-116 -48 -259 -162 -575 -456 -212 -197 -263 -240 -335
-284 -116 -70 -183 -36 -295 150 -73 121 -115 152 -175 129 -26 -10 -55 -79
-64 -152 -28 -225 83 -448 266 -535 58 -27 79 -32 144 -32 69 0 84 4 160 42
48 24 121 73 169 113 189 159 210 172 224 134 18 -48 -21 -138 -134 -309 -140
-211 -153 -272 -66 -318 34 -18 58 -22 136 -22 116 0 175 20 241 82 67 62 89
120 99 262 5 64 18 146 29 182 26 82 86 167 148 208 l48 32 3 -217 2 -216 -59
-102 c-163 -280 -214 -431 -151 -451 27 -9 70 16 129 77 28 28 51 50 51 47 0
-2 -31 -89 -69 -193 l-68 -189 79 -171 c44 -94 96 -208 116 -253 35 -77 52
-101 52 -70 0 7 50 121 111 252 l112 240 -36 100 c-19 55 -51 143 -70 195
l-35 96 62 -61 c97 -97 152 -97 144 0 -5 57 -79 221 -172 379 l-56 95 0 215
c0 119 2 216 5 216 19 0 67 -35 102 -73 75 -81 100 -154 117 -334 11 -112 17
-142 42 -190 53 -103 161 -163 293 -163 115 0 201 44 201 104 0 34 -53 136
-130 251 -93 139 -132 222 -128 272 5 64 29 56 158 -53 198 -168 278 -209 405
-208 164 0 313 131 381 334 24 69 26 257 5 310 -21 52 -50 80 -83 80 -47 0
-63 -15 -134 -123 -185 -283 -208 -278 -655 137 -328 305 -476 419 -582 451
-68 20 -92 19 -162 -10z"/>
<path d="M8966 14753 c12 -233 43 -411 105 -597 202 -602 693 -1057 1431
-1326 l118 -43 2 -904 3 -905 735 1 c404 1 807 4 895 7 l160 7 19 -69 c56
-201 187 -500 300 -682 233 -375 536 -655 900 -832 284 -137 594 -210 896
-210 l100 0 0 100 0 100 -57 0 c-100 0 -294 20 -398 41 -725 144 -1270 674
-1528 1484 -19 61 -43 146 -53 189 l-18 79 -878 -6 -878 -7 -2 880 -3 880
-146 49 c-900 301 -1404 851 -1488 1623 -6 54 -11 127 -11 163 l0 65 -104 0
-104 0 4 -87z"/>
<path d="M9253 14728 c10 -198 65 -414 137 -532 l34 -56 71 0 72 0 12 -82 c37
-238 149 -448 289 -536 94 -60 253 -83 333 -49 118 49 188 197 144 302 -18 45
-54 60 -103 44 -20 -7 -64 -41 -107 -85 -95 -98 -115 -99 -195 -15 -100 104
-160 259 -160 409 0 149 58 271 190 402 119 118 252 180 349 165 66 -10 77 -9
129 16 47 23 132 100 132 119 0 7 -217 10 -666 10 l-667 0 6 -112z"/>
<path d="M11038 14818 c-7 -13 -19 -34 -25 -48 -8 -20 -23 -29 -64 -39 -150
-38 -339 -113 -452 -178 -69 -41 -157 -120 -187 -167 -21 -35 -41 -112 -34
-130 3 -9 46 -3 157 21 124 27 327 63 333 59 1 -1 -2 -23 -6 -51 -27 -161 -2
-368 57 -477 53 -97 165 -177 293 -209 81 -20 291 -18 361 3 68 21 133 67 156
110 41 78 11 212 -65 291 -55 57 -100 77 -174 77 -116 -1 -191 -58 -191 -146
0 -24 -2 -44 -3 -44 -2 0 -13 19 -25 42 -72 142 48 349 301 517 361 241 788
325 1058 210 138 -59 268 -202 339 -369 24 -57 27 -78 28 -175 0 -105 -2 -114
-33 -177 -52 -106 -160 -189 -283 -217 -61 -14 -213 -14 -262 1 -22 7 -55 26
-73 44 -29 27 -34 38 -34 76 0 87 48 121 196 138 131 14 169 25 193 57 27 33
27 88 2 130 -71 115 -393 162 -538 77 -48 -28 -112 -118 -140 -196 -13 -38
-18 -82 -18 -153 0 -86 4 -107 25 -150 77 -158 290 -256 555 -257 188 0 314
42 457 150 l65 49 57 -77 c60 -82 199 -230 279 -298 l49 -41 -56 -72 c-68 -87
-110 -173 -138 -280 -17 -70 -19 -103 -15 -223 5 -158 19 -224 72 -333 101
-207 325 -269 547 -151 122 65 162 146 161 328 -1 133 -27 224 -81 282 -65 69
-155 62 -187 -15 -7 -18 -20 -79 -29 -137 -19 -122 -39 -166 -87 -192 -62 -34
-127 -6 -162 70 -30 66 -29 220 2 311 62 181 186 282 358 289 152 7 288 -54
429 -193 130 -129 178 -251 177 -455 -2 -360 -234 -828 -510 -1027 -110 -78
-209 -100 -289 -64 -52 24 -69 46 -28 37 48 -11 114 30 142 86 35 69 35 159
-1 220 -54 92 -150 151 -247 151 -139 0 -215 -115 -227 -343 -16 -305 112
-495 374 -556 50 -11 106 -15 210 -12 l142 3 -6 -40 c-3 -22 -27 -128 -54
-236 -27 -108 -49 -200 -49 -204 0 -4 25 -5 55 -3 156 13 324 246 441 612 l29
88 59 30 c32 16 80 50 106 74 l47 44 26 -32 26 -33 1 991 0 991 -37 7 c-21 3
-49 6 -63 6 -17 0 -44 17 -79 50 -108 102 -257 151 -461 154 l-125 2 -79 54
c-210 145 -378 333 -494 550 l-40 75 -5 150 c-3 131 -8 161 -32 233 -15 46
-45 107 -65 136 -23 33 -40 70 -44 100 l-7 46 -1023 0 -1024 0 -14 -22z"/>
<path d="M13230 14815 c0 -130 254 -285 510 -311 30 -3 61 -7 67 -9 8 -3 -10
-36 -46 -86 -107 -150 -161 -280 -169 -406 -4 -70 -1 -88 18 -128 62 -129 235
-140 455 -30 50 25 123 70 164 100 40 31 74 55 76 53 1 -2 9 -48 18 -103 37
-224 117 -388 226 -456 89 -57 81 -123 81 686 l0 715 -700 0 -700 0 0 -25z"/>
<path d="M2836 13587 c-21 -23 -44 -69 -71 -146 -72 -206 -108 -248 -208 -244
-110 5 -416 99 -723 224 -67 27 -125 49 -130 49 -5 0 -51 -42 -102 -93 l-93
-93 61 -143 c150 -355 240 -631 240 -736 0 -89 -40 -122 -238 -199 -52 -20
-107 -46 -124 -57 -65 -47 -68 -132 -7 -183 40 -34 66 -40 158 -33 68 4 151
29 275 82 16 7 18 5 13 -8 -17 -44 -58 -271 -69 -377 -25 -247 33 -400 151
-400 77 0 144 121 195 353 29 127 61 341 72 476 l7 83 37 -103 c43 -124 96
-226 124 -241 16 -9 23 -7 37 11 30 37 39 110 32 279 -6 166 -2 212 21 212 24
0 106 -100 135 -164 39 -87 134 -171 265 -235 98 -49 302 -118 313 -108 7 8
-29 130 -69 232 -71 184 -165 303 -282 360 -118 56 -188 131 -140 149 9 3 100
6 202 6 161 0 193 3 228 19 23 10 45 24 48 30 22 34 -56 82 -227 139 l-116 39
132 18 c460 60 738 157 762 265 16 71 -54 137 -170 160 -108 22 -342 -5 -541
-63 l-80 -24 26 66 c58 141 76 284 46 356 -18 43 -69 75 -120 75 -31 0 -45 -7
-70 -33z"/>
<path d="M11706 13600 c-60 -19 -96 -76 -96 -153 0 -59 32 -179 69 -262 17
-37 29 -70 27 -73 -3 -2 -44 5 -93 16 -145 34 -241 46 -373 46 -148 1 -224
-18 -276 -70 -118 -119 22 -228 376 -293 132 -24 363 -51 433 -51 59 0 54 -13
-16 -36 -87 -28 -215 -91 -242 -118 -21 -21 -24 -30 -15 -45 19 -37 70 -44
271 -36 193 7 229 4 229 -20 0 -24 -89 -101 -156 -135 -120 -60 -218 -198
-289 -410 -43 -127 -52 -180 -32 -180 31 0 225 73 309 117 127 65 210 145 261
251 22 46 57 102 79 125 36 39 39 40 56 24 15 -15 17 -42 18 -205 2 -151 5
-195 19 -230 44 -108 91 -60 166 168 21 63 40 108 43 100 2 -8 10 -53 16 -100
16 -121 65 -359 95 -465 32 -115 96 -246 136 -279 62 -52 146 -17 184 77 48
117 22 361 -72 680 -6 18 -4 18 25 3 63 -33 206 -68 282 -69 113 -2 168 35
177 117 9 80 -32 114 -207 171 -161 52 -220 100 -220 178 0 101 75 371 186
672 36 99 68 189 71 200 3 15 -19 42 -92 108 l-96 89 -182 -80 c-313 -139
-505 -208 -641 -233 -58 -11 -71 -10 -101 4 -46 22 -85 79 -125 179 -79 199
-121 243 -204 218z"/>
<path d="M14516 10809 c-66 -58 -100 -129 -93 -191 13 -106 -42 -224 -158
-341 -127 -127 -241 -185 -380 -194 -99 -7 -179 12 -290 67 -86 42 -177 115
-200 161 -28 54 -21 72 64 149 104 93 125 149 75 195 -51 47 -159 41 -246 -14
-58 -37 -99 -113 -105 -195 -22 -265 195 -478 570 -561 l77 -17 0 -73 0 -72
38 -26 c70 -48 188 -97 306 -127 127 -32 313 -60 402 -60 l54 0 0 643 0 643
-28 27 c-15 15 -31 27 -34 27 -3 0 -26 -19 -52 -41z"/>
<path d="M211 10112 l-1 -603 58 6 c181 20 337 65 439 127 l53 32 0 72 0 71
64 7 c203 21 425 118 522 229 135 155 143 401 15 495 -92 68 -245 68 -266 1
-15 -46 5 -88 80 -169 85 -90 91 -112 49 -168 -37 -47 -156 -123 -240 -152
-46 -15 -101 -25 -166 -28 -162 -7 -268 36 -401 166 -146 142 -215 291 -187
403 9 37 9 52 -3 80 -14 31 -15 -25 -16 -569z"/>
<path d="M3470 8955 c-207 -53 -354 -202 -368 -371 -10 -124 41 -230 201 -420
101 -120 113 -140 96 -160 -30 -36 -117 -3 -289 110 -218 144 -276 163 -324
111 -56 -60 -62 -235 -13 -332 60 -117 136 -160 306 -174 168 -13 245 -38 329
-106 37 -30 92 -101 92 -118 0 -3 -97 -5 -215 -5 l-216 0 -102 61 c-199 118
-362 187 -413 175 -56 -14 -25 -99 63 -175 l48 -41 -189 70 c-104 39 -196 70
-205 70 -9 0 -121 -50 -250 -110 -128 -61 -240 -110 -247 -110 -8 0 -14 -4
-14 -10 0 -5 6 -10 13 -10 6 0 121 -51 254 -114 l242 -114 187 69 c103 38 189
69 192 69 3 0 -18 -23 -47 -51 -59 -58 -85 -102 -76 -129 20 -63 176 -10 446
150 l101 60 214 0 c118 0 214 -4 214 -8 0 -15 -56 -87 -90 -115 -79 -67 -164
-95 -325 -107 -79 -6 -128 -15 -164 -30 -66 -29 -132 -100 -160 -173 -37 -99
-24 -254 26 -309 25 -28 91 -23 156 11 30 16 98 59 152 95 109 74 193 120 242
130 35 8 73 -7 73 -28 0 -7 -43 -64 -96 -127 -116 -138 -177 -234 -199 -313
-76 -263 184 -519 510 -504 111 5 175 30 194 76 19 47 -8 86 -104 148 -173
113 -208 150 -208 225 0 68 62 153 316 429 293 319 376 421 434 537 46 93 51
141 23 216 -44 116 -139 239 -437 565 -285 310 -336 379 -336 454 0 62 40 108
155 184 57 37 114 76 127 88 58 52 47 112 -26 147 -58 28 -210 36 -293 14z"/>
<path d="M10740 8951 c-62 -22 -90 -50 -90 -91 0 -36 34 -69 140 -137 134 -87
180 -138 180 -203 0 -73 -72 -167 -395 -516 -289 -312 -395 -468 -395 -586 0
-116 117 -286 426 -619 295 -317 364 -408 364 -479 0 -65 -54 -125 -187 -210
-46 -28 -94 -65 -108 -82 -122 -145 218 -218 456 -97 157 79 261 244 243 384
-13 101 -78 220 -189 345 -121 136 -138 173 -87 185 46 10 127 -27 277 -126
171 -112 204 -129 254 -129 51 0 76 26 98 99 34 119 -10 279 -99 355 -55 48
-114 66 -243 76 -191 15 -300 65 -376 170 l-40 55 217 3 217 2 91 -54 c196
-116 367 -192 416 -184 61 9 50 69 -27 150 l-57 59 110 -40 c60 -21 145 -52
190 -69 l81 -29 242 113 c134 63 247 114 252 114 5 0 9 5 9 10 0 6 -5 10 -11
10 -6 0 -116 50 -246 110 -129 61 -241 110 -248 110 -7 0 -93 -29 -191 -65
-98 -36 -180 -65 -183 -65 -3 0 18 24 46 53 74 76 91 120 58 147 -36 30 -202
-37 -423 -169 l-104 -61 -214 0 c-118 0 -214 2 -214 5 0 18 34 65 72 101 82
79 169 110 349 123 120 10 175 29 236 85 105 95 136 322 56 417 -49 57 -111
38 -313 -98 -127 -85 -196 -121 -247 -128 -89 -13 -82 26 28 155 186 217 240
344 205 480 -50 194 -234 325 -471 336 -82 4 -110 1 -155 -15z"/>
<path d="M210 5537 l0 -104 87 -7 c49 -3 142 -17 209 -31 481 -97 880 -373
1163 -804 171 -260 270 -498 371 -888 l11 -43 834 0 835 0 0 -865 0 -864 38
-10 c20 -5 66 -17 102 -26 36 -9 121 -35 189 -57 830 -269 1334 -809 1435
-1537 9 -62 16 -140 16 -175 0 -35 3 -78 6 -95 l6 -31 101 0 100 0 -7 118
c-46 760 -426 1345 -1116 1715 -159 86 -453 201 -627 247 l-43 11 0 884 0 885
-854 0 -854 0 -42 133 c-264 832 -801 1396 -1504 1577 -108 28 -249 51 -388
65 l-68 7 0 -105z"/>
<path d="M14331 5629 c-884 -93 -1588 -717 -1883 -1671 l-33 -107 -897 6 -898
6 0 -906 0 -905 -47 -18 c-482 -174 -768 -345 -1048 -628 -168 -169 -251 -282
-348 -477 -132 -260 -195 -512 -211 -841 l-4 -88 104 0 104 0 0 65 c0 149 31
345 81 507 180 588 661 1023 1409 1273 l155 52 3 880 2 879 878 -4 878 -5 18
79 c29 128 113 369 175 504 295 646 797 1055 1438 1174 92 17 388 40 409 32
11 -4 14 14 14 99 l0 105 -107 -1 c-60 -1 -146 -6 -192 -10z"/>
<path d="M211 4723 c0 -546 2 -604 15 -568 12 32 13 49 3 87 -14 62 0 129 48
222 45 86 201 248 279 289 107 56 250 72 369 42 93 -24 218 -89 275 -145 72
-70 70 -89 -25 -190 -79 -85 -98 -129 -76 -176 15 -33 55 -46 127 -42 255 16
309 355 92 569 -100 99 -307 184 -493 204 l-65 7 0 68 c0 79 -3 82 -106 134
-98 49 -220 80 -391 101 l-53 6 1 -608z"/>
<path d="M14412 5314 c-232 -29 -418 -88 -544 -172 l-38 -25 0 -73 c0 -68 -2
-74 -22 -78 -358 -78 -557 -218 -612 -431 -46 -176 18 -329 157 -370 89 -27
172 -12 197 35 28 52 2 95 -123 208 -57 51 -60 80 -18 140 81 111 293 211 448
212 126 0 257 -58 372 -166 147 -138 194 -224 193 -353 0 -59 4 -84 23 -121
20 -39 104 -130 120 -130 3 0 19 10 35 22 l30 22 0 648 0 648 -57 -1 c-32 -1
-105 -7 -161 -15z"/>
<path d="M702 4345 c-91 -40 -171 -138 -251 -306 -45 -95 -105 -262 -131 -365
-9 -36 -17 -46 -58 -67 l-47 -25 -3 -1016 -2 -1016 26 0 c16 0 43 -15 72 -40
113 -100 273 -146 475 -138 l118 5 86 -53 c115 -73 192 -135 294 -241 100
-102 183 -211 232 -303 33 -61 35 -72 41 -185 8 -179 43 -290 127 -402 37 -49
39 -56 39 -123 l0 -70 974 0 974 0 37 42 c20 24 55 80 77 126 l41 82 61 19
c380 117 631 299 638 461 1 22 -1 42 -3 44 -2 2 -89 -18 -194 -44 -104 -27
-213 -52 -241 -55 l-51 -7 9 63 c12 81 3 230 -17 311 -65 249 -246 368 -540
355 -145 -7 -230 -33 -289 -90 -95 -91 -79 -234 39 -346 59 -56 115 -76 184
-67 110 15 176 78 169 161 -2 25 -2 45 -1 45 1 0 14 -21 29 -46 66 -113 17
-253 -145 -415 -292 -291 -769 -463 -1093 -394 -194 41 -374 204 -455 411 -36
94 -38 221 -4 307 28 70 110 162 178 199 118 64 302 83 395 41 80 -36 108
-106 68 -170 -27 -46 -67 -63 -195 -83 -62 -10 -126 -25 -143 -34 -57 -30 -63
-117 -10 -174 90 -96 364 -123 507 -49 54 27 109 103 142 196 30 84 32 202 6
278 -21 59 -90 142 -149 179 -95 60 -241 95 -398 95 -203 1 -370 -61 -511
-188 l-37 -33 -55 67 c-59 72 -207 219 -295 293 l-54 45 40 51 c48 60 103 166
129 249 28 93 26 342 -5 449 -32 112 -66 178 -123 241 -118 128 -287 150 -469
59 -133 -67 -175 -145 -174 -324 1 -204 80 -346 190 -344 78 2 95 32 114 209
14 121 29 158 72 185 73 45 151 6 184 -92 23 -70 16 -241 -14 -316 -72 -185
-220 -283 -406 -269 -132 10 -264 77 -385 197 -83 82 -126 155 -157 270 -24
87 -24 294 0 405 93 433 384 845 628 889 43 8 113 -8 145 -32 23 -17 22 -17
-21 -17 -87 0 -146 -78 -146 -193 0 -99 56 -180 159 -232 108 -54 216 -29 278
63 42 63 58 138 57 277 -1 218 -69 368 -206 456 -101 65 -275 94 -437 75 -51
-7 -96 -9 -99 -6 -10 10 54 362 84 468 4 14 -1 17 -33 17 -21 -1 -53 -7 -71
-15z"/>
<path d="M13840 4321 c0 -6 18 -79 39 -163 22 -84 45 -180 51 -213 6 -33 13
-69 15 -81 4 -20 2 -20 -129 -16 -102 3 -152 1 -210 -12 -269 -60 -397 -244
-383 -551 3 -73 12 -133 27 -178 59 -188 236 -230 389 -91 72 64 98 137 81
226 -19 99 -79 154 -159 146 l-43 -4 28 23 c167 135 478 -87 677 -483 183
-362 212 -697 80 -923 -61 -104 -214 -234 -331 -280 -198 -78 -393 -20 -502
150 -50 77 -72 159 -73 274 -2 86 1 107 22 148 27 56 55 77 102 79 75 3 115
-43 136 -153 8 -46 19 -108 25 -138 19 -100 94 -140 172 -91 65 39 108 162
109 305 1 107 -16 192 -46 237 -33 48 -122 106 -202 130 -246 77 -435 -41
-511 -317 -9 -36 -18 -117 -21 -201 -5 -121 -2 -152 16 -224 26 -105 77 -208
142 -288 l51 -63 -68 -62 c-120 -109 -274 -280 -305 -340 -9 -15 -17 -11 -77
35 -83 64 -163 102 -272 129 -72 18 -103 21 -215 16 -147 -6 -227 -24 -331
-73 -86 -40 -152 -102 -190 -175 -39 -76 -45 -190 -16 -286 25 -80 86 -180
130 -211 68 -49 223 -65 355 -37 133 28 217 96 217 175 0 72 -46 102 -180 115
-130 13 -167 24 -199 61 -24 27 -31 44 -31 77 0 86 64 128 206 135 157 7 282
-35 375 -128 71 -71 102 -143 107 -251 7 -138 -36 -252 -146 -391 -127 -159
-278 -228 -502 -228 -193 0 -392 50 -591 150 -388 194 -593 465 -482 640 l20
31 0 -46 c0 -54 23 -90 78 -121 89 -51 199 -35 274 38 65 65 94 129 95 210 1
58 -3 71 -29 110 -60 84 -206 128 -382 114 -264 -21 -414 -139 -468 -368 -16
-69 -19 -251 -5 -333 4 -27 7 -51 6 -52 -4 -5 -213 32 -338 60 -158 36 -153
36 -149 -18 14 -159 269 -331 636 -428 82 -22 85 -24 108 -67 l24 -45 1025 -3
1026 -2 6 22 c3 13 6 35 6 49 0 14 9 34 19 43 33 30 89 157 105 238 9 44 16
127 16 193 0 108 2 119 29 173 110 217 308 438 519 577 l72 48 133 2 c84 2
154 9 192 19 91 25 198 81 258 136 53 49 57 50 116 50 l61 0 0 993 -1 992 -26
-30 -26 -30 -48 47 c-26 25 -74 59 -106 74 l-58 28 -38 116 c-41 125 -126 310
-178 387 -51 77 -130 153 -184 179 -50 24 -125 32 -125 15z"/>
<path d="M1891 3574 c-61 -54 -76 -110 -75 -274 1 -135 17 -254 54 -400 11
-41 18 -76 16 -77 -2 -2 -36 10 -76 27 -246 101 -410 73 -412 -71 -1 -62 39
-95 189 -153 126 -49 193 -89 214 -127 39 -73 -45 -366 -231 -802 l-62 -146
97 -93 97 -94 168 67 c314 125 589 209 688 209 102 0 131 -33 204 -234 54
-149 85 -189 147 -188 50 1 84 21 112 65 18 28 20 44 16 127 -4 77 -11 114
-41 194 -19 55 -34 101 -33 102 1 2 54 -10 117 -27 262 -66 465 -76 573 -26
127 58 127 159 0 234 -96 56 -328 117 -583 153 -80 12 -161 23 -180 26 -31 5
-25 9 75 43 134 46 210 84 226 113 10 18 8 24 -11 40 -38 31 -94 39 -272 37
-95 0 -181 2 -190 6 -10 4 -18 16 -18 26 0 25 88 93 164 128 107 48 204 173
274 351 33 82 76 229 70 236 -8 7 -174 -45 -256 -80 -170 -73 -277 -162 -331
-278 -31 -65 -101 -148 -126 -148 -23 0 -26 31 -23 232 3 165 0 199 -14 231
-19 41 -51 50 -75 20 -27 -35 -71 -129 -104 -225 l-34 -96 -17 154 c-44 396
-116 659 -201 730 -43 36 -88 32 -136 -12z"/>
<path d="M12733 3561 c-86 -53 -171 -302 -229 -671 -15 -91 -29 -172 -31 -180
-3 -8 -22 37 -42 100 -72 222 -119 272 -163 174 -18 -41 -20 -69 -22 -235 -1
-168 -3 -190 -19 -206 -18 -17 -20 -16 -59 27 -22 25 -58 82 -79 126 -46 97
-115 166 -230 231 -74 42 -253 114 -318 128 l-34 7 6 -38 c11 -70 68 -227 115
-318 57 -111 135 -197 215 -238 63 -31 157 -112 157 -134 0 -23 -39 -26 -228
-19 -163 6 -192 5 -229 -10 -23 -9 -44 -23 -47 -31 -13 -34 73 -88 249 -155
l100 -38 -50 -1 c-28 0 -127 -9 -220 -20 -456 -52 -676 -141 -650 -261 10 -43
65 -94 127 -115 103 -36 385 -21 592 32 32 8 60 13 62 11 2 -2 -10 -35 -27
-72 -37 -83 -69 -203 -69 -262 0 -84 45 -146 115 -159 69 -13 115 43 184 222
57 148 116 203 205 189 125 -19 356 -102 663 -239 95 -42 176 -76 181 -76 12
0 192 170 192 182 0 5 -23 71 -51 146 -80 212 -154 446 -184 577 -52 233 -30
266 238 354 121 41 167 78 167 137 0 48 -29 98 -69 119 -63 32 -222 15 -362
-40 -53 -21 -59 -22 -55 -7 71 240 90 345 90 497 1 151 -14 205 -70 255 -40
35 -75 38 -121 11z"/>
<path d="M210 714 l0 -714 700 0 700 0 -6 27 c-20 87 -92 162 -208 218 -87 41
-161 63 -287 84 l-97 16 48 64 c205 273 244 545 89 631 -120 67 -354 -1 -564
-165 l-60 -46 -8 68 c-28 258 -149 486 -276 523 l-31 9 0 -715z"/>
<path d="M14555 1411 c-122 -56 -232 -275 -260 -518 l-7 -62 -81 60 c-170 127
-366 196 -482 170 -173 -39 -204 -224 -80 -476 25 -49 69 -123 100 -163 30
-40 55 -75 55 -77 0 -1 -26 -6 -57 -9 -163 -19 -364 -95 -450 -170 -43 -38
-83 -107 -83 -144 l0 -22 710 0 710 0 0 715 c0 803 7 734 -75 696z"/>
<path d="M4390 1391 c-84 -17 -155 -74 -188 -150 -8 -20 -15 -64 -16 -98 -1
-79 23 -116 78 -121 48 -4 80 17 145 94 62 75 96 92 139 70 49 -25 129 -123
172 -209 96 -194 88 -381 -23 -548 -58 -87 -192 -210 -271 -249 -61 -30 -78
-34 -155 -35 -63 0 -95 -5 -120 -19 -37 -20 -121 -100 -121 -116 0 -7 217 -10
666 -10 l665 0 -5 43 c-3 23 -8 71 -11 107 -13 144 -68 357 -118 455 -11 22
-34 61 -51 88 l-31 47 -73 0 c-50 0 -74 4 -76 13 -2 6 -12 50 -23 97 -44 182
-116 322 -214 419 -62 61 -131 98 -216 116 -73 16 -98 17 -153 6z"/>
<path d="M9975 1366 c-116 -37 -224 -131 -287 -252 -49 -92 -94 -229 -109
-331 l-12 -82 -71 -3 -71 -3 -32 -50 c-71 -108 -130 -333 -140 -532 l-6 -113
667 0 c376 0 666 4 666 9 0 19 -82 92 -130 116 -46 23 -59 25 -119 19 -127
-12 -244 44 -381 185 -150 153 -201 324 -155 519 37 157 162 332 238 332 22 0
45 -18 106 -79 59 -60 88 -81 114 -86 45 -9 75 8 93 50 42 101 -20 240 -130
291 -59 27 -172 32 -241 10z"/>
</g>
</svg>
